<svg xmlns="http://www.w3.org/2000/svg" xmlns:xlink="http://www.w3.org/1999/xlink" id="Layer_1" x="0" y="0" version="1.1" viewBox="0 0 1074.8 371.5" style="enable-background:new 0 0 1074.8 371.5" xml:space="preserve"><style type="text/css">.st0{display:none;fill:#fff;stroke:#000;stroke-miterlimit:10}.st1{fill:url(#SVGID_1_)}.st4{fill:#030851}.st5{font-family:&apos;AltoneTrial-Bold&apos;}.st6{font-size:354.82px}.st7{letter-spacing:17}</style><g id="Layer_2_00000094591416063824089370000012675019193988025249_"><g id="Layer_1-2"><rect width="1417.3" height="1417.3" x="-171.2" y="-522.9" class="st0"/><linearGradient id="SVGID_1_" x1="110.755" x2="134.615" y1="345.666" y2="208.686" gradientTransform="matrix(1 0 0 -1 0 369.0526)" gradientUnits="userSpaceOnUse"><stop offset=".43" style="stop-color:#5a00ff"/><stop offset=".54" style="stop-color:#5d00fe"/><stop offset=".64" style="stop-color:#6700fc"/><stop offset=".72" style="stop-color:#7800f9"/><stop offset=".8" style="stop-color:#9000f5"/><stop offset=".88" style="stop-color:#b000ef"/><stop offset=".95" style="stop-color:#d500e8"/><stop offset=".99" style="stop-color:#e900e4"/></linearGradient><path d="M228.8,66.5v2.6c0,22.6-18.3,40.8-40.9,40.8c-0.1,0-0.2,0-0.3,0l-120-1.1c0,0-30.9,3.9-27.2,32.6l-24-24.5 V66.5H228.8z" class="st1"/><linearGradient id="SVGID_00000069391597616247190050000007114579072228137393_" x1="146.273" x2="-21.367" y1="48.733" y2="307.883" gradientTransform="matrix(1 0 0 -1 0 369.0526)" gradientUnits="userSpaceOnUse"><stop offset=".43" style="stop-color:#5a00ff"/><stop offset=".54" style="stop-color:#5d00fe"/><stop offset=".64" style="stop-color:#6700fc"/><stop offset=".72" style="stop-color:#7800f9"/><stop offset=".8" style="stop-color:#9000f5"/><stop offset=".88" style="stop-color:#b000ef"/><stop offset=".95" style="stop-color:#d500e8"/><stop offset=".99" style="stop-color:#e900e4"/></linearGradient><path style="fill:url(#SVGID_00000069391597616247190050000007114579072228137393_)" d="M228.8,262.6c0,23.3-18.9,42.3-42.2,42.3 c0,0-0.1,0-0.1,0H16.4V181.6l39.4,40.1v40.9H228.8z"/><linearGradient id="SVGID_00000011030927878003459690000011635860355331214984_" x1="99.796" x2="210.416" y1="263.811" y2="105.151" gradientTransform="matrix(1 0 0 -1 0 369.0526)" gradientUnits="userSpaceOnUse"><stop offset="0" style="stop-color:#5a00ff"/><stop offset=".11" style="stop-color:#6401f1"/><stop offset=".86" style="stop-color:#ad0b93"/></linearGradient><path style="fill:url(#SVGID_00000011030927878003459690000011635860355331214984_)" d="M228.8,169c0,22.1-17.9,40.1-40.1,40.1 c0,0,0,0-0.1,0H107L51.8,153l-11.3-11.5c-3.6-28.7,27.2-32.6,27.2-32.6l55,58.7L228.8,169z"/><text class="st4 st5 st6 st7" transform="matrix(1 0 0 1 259.2239 303.3123)">LIDE</text></g></g></svg>