<svg xmlns="http://www.w3.org/2000/svg" xmlns:xlink="http://www.w3.org/1999/xlink" viewBox="0 0 1418.32 1418.32"><defs><style>.cls-1{fill:#fff;stroke:#000;stroke-miterlimit:10}.cls-2{fill:url(#linear-gradient)}.cls-3{fill:url(#linear-gradient-2)}.cls-4{fill:url(#linear-gradient-3)}.cls-5{font-size:354.82px;fill:#030851;font-family:AltoneTrial-Bold,Altone Trial;font-weight:700;letter-spacing:.05em}</style><linearGradient id="linear-gradient" x1="266.03" x2="289.89" y1="539.77" y2="676.75" gradientUnits="userSpaceOnUse"><stop offset=".43" stop-color="#5a00ff"/><stop offset=".54" stop-color="#5d00fe"/><stop offset=".64" stop-color="#6700fc"/><stop offset=".72" stop-color="#7800f9"/><stop offset=".8" stop-color="#9000f5"/><stop offset=".88" stop-color="#b000ef"/><stop offset=".95" stop-color="#d500e8"/><stop offset=".99" stop-color="#e900e4"/></linearGradient><linearGradient id="linear-gradient-2" x1="301.59" x2="133.95" y1="836.69" y2="577.54" xlink:href="#linear-gradient"/><linearGradient id="linear-gradient-3" x1="255.1" x2="365.72" y1="621.62" y2="780.28" gradientUnits="userSpaceOnUse"><stop offset="0" stop-color="#5a00ff"/><stop offset=".11" stop-color="#6401f1"/><stop offset=".86" stop-color="#ad0b93"/></linearGradient></defs><title>Asset 1</title><g id="Layer_2" data-name="Layer 2"><g id="Layer_1-2" data-name="Layer 1"><rect width="1417.32" height="1417.32" x=".5" y=".5" class="cls-1"/><path d="M384.15,582.91v2.63A40.84,40.84,0,0,1,343,626.36l-120-1.12s-30.85,3.93-27.2,32.62l-24-24.45v-50.5Z" class="cls-2"/><path d="M384.15,779a42.27,42.27,0,0,1-42.34,42.34H171.75V698l39.36,40.1V779Z" class="cls-3"/><path d="M384.15,685.4A40.09,40.09,0,0,1,344,725.5H262.35l-55.27-56.16-11.29-11.48c-3.65-28.69,27.2-32.62,27.2-32.62l55,58.67Z" class="cls-4"/><text class="cls-5" transform="translate(414.53 819.69)">LIDE</text></g></g></svg>